<mxfile host="Electron" modified="2023-11-11T21:49:51.507Z" agent="Mozilla/5.0 (Windows NT 10.0; Win64; x64) AppleWebKit/537.36 (KHTML, like Gecko) draw.io/22.0.3 Chrome/114.0.5735.289 Electron/25.8.4 Safari/537.36" etag="yZirDgvTmOObj8_WJgPj" version="22.0.3" type="device">
  <diagram name="Page-1" id="5f0bae14-7c28-e335-631c-24af17079c00">
    <mxGraphModel dx="780" dy="504" grid="1" gridSize="10" guides="1" tooltips="1" connect="1" arrows="1" fold="1" page="1" pageScale="1" pageWidth="1100" pageHeight="850" background="none" math="0" shadow="0">
      <root>
        <mxCell id="0" />
        <mxCell id="1" parent="0" />
        <mxCell id="39150e848f15840c-5" value="" style="shape=component;align=left;spacingLeft=36;rounded=0;shadow=0;comic=0;labelBackgroundColor=none;strokeWidth=1;fontFamily=Verdana;fontSize=12;html=1;" parent="1" vertex="1">
          <mxGeometry x="80" y="210" width="560" height="430" as="geometry" />
        </mxCell>
        <mxCell id="xThxwMfP3DksM_O-Ol6N-5" value="" style="ellipse;whiteSpace=wrap;html=1;align=center;aspect=fixed;fillColor=none;strokeColor=none;resizable=0;perimeter=centerPerimeter;rotatable=0;allowArrows=0;points=[];outlineConnect=1;" vertex="1" parent="1">
          <mxGeometry x="240" y="180" width="10" height="10" as="geometry" />
        </mxCell>
        <mxCell id="xThxwMfP3DksM_O-Ol6N-10" value="" style="ellipse;whiteSpace=wrap;html=1;align=center;aspect=fixed;fillColor=none;strokeColor=none;resizable=0;perimeter=centerPerimeter;rotatable=0;allowArrows=0;points=[];outlineConnect=1;" vertex="1" parent="1">
          <mxGeometry x="345" y="145" width="10" height="10" as="geometry" />
        </mxCell>
        <mxCell id="xThxwMfP3DksM_O-Ol6N-16" value="" style="ellipse;whiteSpace=wrap;html=1;align=center;aspect=fixed;fillColor=none;strokeColor=none;resizable=0;perimeter=centerPerimeter;rotatable=0;allowArrows=0;points=[];outlineConnect=1;" vertex="1" parent="1">
          <mxGeometry x="335" y="270" width="10" height="10" as="geometry" />
        </mxCell>
        <mxCell id="xThxwMfP3DksM_O-Ol6N-19" value="" style="ellipse;whiteSpace=wrap;html=1;align=center;aspect=fixed;fillColor=none;strokeColor=none;resizable=0;perimeter=centerPerimeter;rotatable=0;allowArrows=0;points=[];outlineConnect=1;" vertex="1" parent="1">
          <mxGeometry x="685" y="180" width="10" height="10" as="geometry" />
        </mxCell>
        <mxCell id="xThxwMfP3DksM_O-Ol6N-24" value="" style="ellipse;whiteSpace=wrap;html=1;align=center;aspect=fixed;fillColor=none;strokeColor=none;resizable=0;perimeter=centerPerimeter;rotatable=0;allowArrows=0;points=[];outlineConnect=1;" vertex="1" parent="1">
          <mxGeometry x="240" y="270" width="10" height="10" as="geometry" />
        </mxCell>
        <mxCell id="xThxwMfP3DksM_O-Ol6N-25" value="Service" style="shape=component;align=left;spacingLeft=36;rounded=0;shadow=0;comic=0;labelBackgroundColor=none;strokeWidth=1;fontFamily=Verdana;fontSize=12;html=1;" vertex="1" parent="1">
          <mxGeometry x="460" y="260" width="120" height="60" as="geometry" />
        </mxCell>
        <mxCell id="xThxwMfP3DksM_O-Ol6N-26" value="Controller" style="shape=component;align=left;spacingLeft=36;rounded=0;shadow=0;comic=0;labelBackgroundColor=none;strokeWidth=1;fontFamily=Verdana;fontSize=12;html=1;" vertex="1" parent="1">
          <mxGeometry x="200" y="395" width="120" height="60" as="geometry" />
        </mxCell>
        <mxCell id="xThxwMfP3DksM_O-Ol6N-27" value="Persistence &lt;br&gt;&amp;nbsp; &amp;nbsp; &amp;nbsp;H2" style="shape=component;align=left;spacingLeft=36;rounded=0;shadow=0;comic=0;labelBackgroundColor=none;strokeWidth=1;fontFamily=Verdana;fontSize=12;html=1;" vertex="1" parent="1">
          <mxGeometry x="460" y="520" width="120" height="60" as="geometry" />
        </mxCell>
        <mxCell id="xThxwMfP3DksM_O-Ol6N-28" value="Validador" style="shape=component;align=left;spacingLeft=36;rounded=0;shadow=0;comic=0;labelBackgroundColor=none;strokeWidth=1;fontFamily=Verdana;fontSize=12;html=1;" vertex="1" parent="1">
          <mxGeometry x="460" y="390" width="120" height="60" as="geometry" />
        </mxCell>
        <mxCell id="xThxwMfP3DksM_O-Ol6N-34" value="" style="rounded=0;orthogonalLoop=1;jettySize=auto;html=1;endArrow=oval;endFill=0;sketch=0;sourcePerimeterSpacing=0;targetPerimeterSpacing=0;endSize=10;exitX=0.033;exitY=0.367;exitDx=0;exitDy=0;exitPerimeter=0;" edge="1" parent="1" target="39150e848f15840c-5">
          <mxGeometry relative="1" as="geometry">
            <mxPoint x="640" y="325" as="sourcePoint" />
            <mxPoint x="640" y="360" as="targetPoint" />
          </mxGeometry>
        </mxCell>
        <mxCell id="xThxwMfP3DksM_O-Ol6N-35" value="" style="html=1;rounded=0;" vertex="1" parent="1">
          <mxGeometry x="70" y="410" width="30" height="30" as="geometry" />
        </mxCell>
        <mxCell id="xThxwMfP3DksM_O-Ol6N-39" value="" style="rounded=0;orthogonalLoop=1;jettySize=auto;html=1;endArrow=oval;endFill=0;sketch=0;sourcePerimeterSpacing=0;targetPerimeterSpacing=0;endSize=10;exitX=0;exitY=0.5;exitDx=0;exitDy=0;" edge="1" target="xThxwMfP3DksM_O-Ol6N-40" parent="1" source="xThxwMfP3DksM_O-Ol6N-35">
          <mxGeometry relative="1" as="geometry">
            <mxPoint x="20" y="425" as="sourcePoint" />
          </mxGeometry>
        </mxCell>
        <mxCell id="xThxwMfP3DksM_O-Ol6N-40" value="" style="ellipse;whiteSpace=wrap;html=1;align=center;aspect=fixed;fillColor=none;strokeColor=none;resizable=0;perimeter=centerPerimeter;rotatable=0;allowArrows=0;points=[];outlineConnect=1;" vertex="1" parent="1">
          <mxGeometry x="35" y="420" width="10" height="10" as="geometry" />
        </mxCell>
        <mxCell id="xThxwMfP3DksM_O-Ol6N-41" value="Cliente" style="text;html=1;strokeColor=none;fillColor=none;align=center;verticalAlign=middle;whiteSpace=wrap;rounded=0;" vertex="1" parent="1">
          <mxGeometry x="10" y="380" width="60" height="30" as="geometry" />
        </mxCell>
        <mxCell id="xThxwMfP3DksM_O-Ol6N-43" value="" style="rounded=0;orthogonalLoop=1;jettySize=auto;html=1;endArrow=oval;endFill=0;sketch=0;sourcePerimeterSpacing=0;targetPerimeterSpacing=0;endSize=10;exitX=0.144;exitY=0.5;exitDx=0;exitDy=0;exitPerimeter=0;" edge="1" parent="1" source="xThxwMfP3DksM_O-Ol6N-26">
          <mxGeometry relative="1" as="geometry">
            <mxPoint x="130" y="495" as="sourcePoint" />
            <mxPoint x="170" y="425" as="targetPoint" />
          </mxGeometry>
        </mxCell>
        <mxCell id="xThxwMfP3DksM_O-Ol6N-44" value="" style="ellipse;whiteSpace=wrap;html=1;align=center;aspect=fixed;fillColor=none;strokeColor=none;resizable=0;perimeter=centerPerimeter;rotatable=0;allowArrows=0;points=[];outlineConnect=1;" vertex="1" parent="1">
          <mxGeometry x="130" y="420" width="10" height="10" as="geometry" />
        </mxCell>
        <mxCell id="xThxwMfP3DksM_O-Ol6N-47" value="" style="rounded=0;orthogonalLoop=1;jettySize=auto;html=1;endArrow=halfCircle;endFill=0;endSize=6;strokeWidth=1;sketch=0;" edge="1" target="xThxwMfP3DksM_O-Ol6N-49" parent="1">
          <mxGeometry relative="1" as="geometry">
            <mxPoint x="470" y="290" as="sourcePoint" />
          </mxGeometry>
        </mxCell>
        <mxCell id="xThxwMfP3DksM_O-Ol6N-48" value="" style="rounded=0;orthogonalLoop=1;jettySize=auto;html=1;endArrow=oval;endFill=0;sketch=0;sourcePerimeterSpacing=0;targetPerimeterSpacing=0;endSize=10;exitX=0.375;exitY=0.349;exitDx=0;exitDy=0;exitPerimeter=0;" edge="1" parent="1" source="39150e848f15840c-5">
          <mxGeometry relative="1" as="geometry">
            <mxPoint x="270" y="291" as="sourcePoint" />
            <mxPoint x="290" y="291" as="targetPoint" />
            <Array as="points">
              <mxPoint x="290" y="390" />
              <mxPoint x="290" y="360" />
            </Array>
          </mxGeometry>
        </mxCell>
        <mxCell id="xThxwMfP3DksM_O-Ol6N-49" value="" style="ellipse;whiteSpace=wrap;html=1;align=center;aspect=fixed;fillColor=none;strokeColor=none;resizable=0;perimeter=centerPerimeter;rotatable=0;allowArrows=0;points=[];outlineConnect=1;" vertex="1" parent="1">
          <mxGeometry x="285" y="285" width="10" height="10" as="geometry" />
        </mxCell>
        <mxCell id="xThxwMfP3DksM_O-Ol6N-50" value="" style="rounded=0;orthogonalLoop=1;jettySize=auto;html=1;endArrow=halfCircle;endFill=0;endSize=6;strokeWidth=1;sketch=0;" edge="1" target="xThxwMfP3DksM_O-Ol6N-52" parent="1">
          <mxGeometry relative="1" as="geometry">
            <mxPoint x="530" y="390" as="sourcePoint" />
          </mxGeometry>
        </mxCell>
        <mxCell id="xThxwMfP3DksM_O-Ol6N-51" value="" style="rounded=0;orthogonalLoop=1;jettySize=auto;html=1;endArrow=oval;endFill=0;sketch=0;sourcePerimeterSpacing=0;targetPerimeterSpacing=0;endSize=10;" edge="1" target="xThxwMfP3DksM_O-Ol6N-52" parent="1">
          <mxGeometry relative="1" as="geometry">
            <mxPoint x="530" y="320" as="sourcePoint" />
          </mxGeometry>
        </mxCell>
        <mxCell id="xThxwMfP3DksM_O-Ol6N-52" value="" style="ellipse;whiteSpace=wrap;html=1;align=center;aspect=fixed;fillColor=none;strokeColor=none;resizable=0;perimeter=centerPerimeter;rotatable=0;allowArrows=0;points=[];outlineConnect=1;" vertex="1" parent="1">
          <mxGeometry x="525" y="350" width="10" height="10" as="geometry" />
        </mxCell>
        <mxCell id="xThxwMfP3DksM_O-Ol6N-55" value="" style="rounded=0;orthogonalLoop=1;jettySize=auto;html=1;endArrow=halfCircle;endFill=0;endSize=6;strokeWidth=1;sketch=0;" edge="1" parent="1">
          <mxGeometry relative="1" as="geometry">
            <mxPoint x="530" y="519" as="sourcePoint" />
            <mxPoint x="530" y="484" as="targetPoint" />
          </mxGeometry>
        </mxCell>
        <mxCell id="xThxwMfP3DksM_O-Ol6N-56" value="" style="rounded=0;orthogonalLoop=1;jettySize=auto;html=1;endArrow=oval;endFill=0;sketch=0;sourcePerimeterSpacing=0;targetPerimeterSpacing=0;endSize=10;" edge="1" parent="1">
          <mxGeometry relative="1" as="geometry">
            <mxPoint x="530" y="449" as="sourcePoint" />
            <mxPoint x="530" y="484" as="targetPoint" />
          </mxGeometry>
        </mxCell>
        <mxCell id="xThxwMfP3DksM_O-Ol6N-57" value="API Evaluacion&amp;nbsp; Springboot-gradle" style="text;html=1;strokeColor=none;fillColor=none;align=center;verticalAlign=middle;whiteSpace=wrap;rounded=0;" vertex="1" parent="1">
          <mxGeometry x="100" y="220" width="210" height="30" as="geometry" />
        </mxCell>
        <mxCell id="xThxwMfP3DksM_O-Ol6N-61" value="" style="endArrow=block;dashed=1;endFill=0;endSize=12;html=1;rounded=0;exitX=1;exitY=0.5;exitDx=0;exitDy=0;" edge="1" parent="1" source="xThxwMfP3DksM_O-Ol6N-35">
          <mxGeometry width="160" relative="1" as="geometry">
            <mxPoint x="110" y="425" as="sourcePoint" />
            <mxPoint x="160" y="425" as="targetPoint" />
          </mxGeometry>
        </mxCell>
      </root>
    </mxGraphModel>
  </diagram>
</mxfile>
